<svg xmlns="http://www.w3.org/2000/svg" width="27.815" height="39.584" viewBox="0 0 27.815 39.584" fill="none">
  <path d="M 13.956 0 L 13.232 0 L 13.21 0 L 9.254 0 C 4.799 0 1.09 3.142 0.202 7.336 C 0.082 7.918 0 9.127 0 9.127 L 0 16.837 C 0 16.837 0.746 12.172 6.694 10.06 C 8.239 9.515 9.866 9.254 11.508 9.254 L 11.933 9.254 L 13.217 9.254 L 13.24 9.254 L 14.023 9.254 C 16.561 9.254 18.62 11.314 18.62 13.852 C 18.62 16.389 16.561 18.449 14.023 18.449 L 13.24 18.449 L 13.217 18.449 L 11.933 18.449 L 7.291 18.449 C 3.269 18.449 0.007 21.71 0.007 25.733 L 0.007 27.696 L 0.007 39.584 C 0.007 39.584 1.09 28.412 10.926 27.696 L 11.933 27.696 L 13.217 27.696 L 13.24 27.696 L 13.963 27.696 C 21.613 27.696 27.815 21.494 27.815 13.844 C 27.8 6.202 21.606 0 13.956 0 Z" fill="currentColor" fill-rule="nonzero"></path>
</svg>